<?xml version="1.0" encoding="UTF-8" standalone="no"?><!DOCTYPE svg PUBLIC "-//W3C//DTD SVG 1.1//EN" "http://www.w3.org/Graphics/SVG/1.1/DTD/svg11.dtd"><svg width="100%" height="100%" viewBox="0 0 1280 400" version="1.1" xmlns="http://www.w3.org/2000/svg" xmlns:xlink="http://www.w3.org/1999/xlink" xml:space="preserve" style="fill-rule:evenodd;clip-rule:evenodd;stroke-linejoin:round;stroke-miterlimit:1.41421;"><g><path d="M39.081,82.868l58.608,0l89.012,124.635l0,-124.635l68.864,0l0,235.381l-58.974,0l-88.646,-124.269l0,124.269l-68.864,0l0,-235.381l0,0Z" style="fill:#fff;fill-rule:nonzero;"/><path d="M281.206,231.625c0,-29.483 8.424,-51.9 25.275,-67.251c16.85,-15.351 42.246,-23.026 76.19,-23.026c34.188,0 59.768,7.675 76.74,23.026c16.971,15.351 25.458,37.768 25.458,67.251c0,60.185 -34.067,90.278 -102.198,90.278c-67.643,0 -101.465,-30.093 -101.465,-90.278Zm125.824,30.703c5.006,-6.336 7.51,-16.57 7.51,-30.703c0,-13.888 -2.504,-24.061 -7.51,-30.518c-5.006,-6.458 -13.126,-9.686 -24.359,-9.686c-10.989,0 -18.926,3.228 -23.809,9.686c-4.884,6.457 -7.327,16.63 -7.327,30.518c0,14.133 2.443,24.367 7.327,30.703c4.883,6.334 12.82,9.502 23.809,9.502c11.233,0 19.353,-3.168 24.359,-9.502Z" style="fill:#fff;fill-rule:nonzero;"/><path d="M518.751,301.801c-14.041,-13.401 -21.062,-34.965 -21.062,-64.693c0,-20.468 3.724,-37.889 11.172,-52.267c7.449,-14.376 17.461,-25.218 30.037,-32.529c12.577,-7.309 26.557,-10.964 41.942,-10.964c8.058,0 16.056,0.852 23.992,2.558c7.937,1.706 14.835,4.142 20.696,7.31l0,-79.313l68.865,0l0,246.346l-59.707,0l-3.297,-13.524c-7.326,5.604 -15.202,9.869 -23.626,12.793c-8.426,2.924 -18.132,4.385 -29.121,4.385c-25.885,0 -45.849,-6.701 -59.891,-20.102l0,0Zm106.777,-40.205l0,-61.403c-6.837,-6.092 -15.873,-9.137 -27.106,-9.137c-9.28,0 -16.667,4.081 -22.161,12.244c-5.495,8.162 -8.242,19.553 -8.242,34.173c0,9.504 1.038,16.752 3.114,21.748c2.075,4.995 5.25,8.406 9.523,10.233c4.274,1.828 10.195,2.742 17.766,2.742c10.5,0 19.536,-3.534 27.106,-10.6l0,0Z" style="fill:#fff;fill-rule:nonzero;"/><path d="M741.096,308.562c-9.158,-8.893 -13.737,-23.086 -13.737,-42.58l0,-194.079l68.865,0l0,186.403c0,5.118 1.038,8.651 3.114,10.6c2.076,1.95 5.555,2.924 10.439,2.924c7.082,0 13.065,-0.974 17.949,-2.924l0,45.688c-6.593,2.68 -12.882,4.568 -18.864,5.664c-5.984,1.097 -13.493,1.645 -22.528,1.645c-21.002,0 -36.081,-4.446 -45.238,-13.341l0,0Z" style="fill:#fff;fill-rule:nonzero;"/><path d="M847.506,72.269l74.359,0l0,49.707l-74.359,0l0,-49.707Zm5.495,122.807l-25.275,0l5.86,-50.073l88.279,0l0,173.246l-68.864,0l0,-123.173l0,0Z" style="fill:#fff;fill-rule:nonzero;"/><path d="M954.832,145.003l63.737,0l1.83,13.889c17.095,-11.696 35.898,-17.544 56.411,-17.544c10.745,0 19.414,1.523 26.007,4.568c6.594,3.047 11.844,7.736 15.751,14.072c17.827,-12.427 38.34,-18.64 61.539,-18.64c20.268,0 35.165,5.299 44.689,15.899c9.523,10.6 14.285,26.742 14.285,48.428l0,112.574l-67.766,0l0,-104.533c0,-7.797 -1.587,-13.34 -4.762,-16.63c-3.174,-3.29 -8.424,-4.934 -15.75,-4.934c-4.396,0 -8.669,0.913 -12.821,2.741c-4.151,1.827 -7.692,4.326 -10.623,7.492c0.489,4.143 0.733,10.235 0.733,18.276l0,97.588l-63.736,0l0,-105.629c0,-7.311 -1.283,-12.549 -3.846,-15.717c-2.565,-3.167 -7.143,-4.751 -13.737,-4.751c-8.547,0 -16.971,4.143 -25.274,12.427l0,113.67l-66.667,0l0,-173.246l0,0Z" style="fill:#fff;fill-rule:nonzero;"/></g></svg>